<?xml version="1.0" standalone="no"?>
<!DOCTYPE svg PUBLIC "-//W3C//DTD SVG 1.1//EN"
   "http://www.w3.org/Graphics/SVG/1.1/DTD/svg11.dtd">
<svg width="116" height="59" version="1.1"
   xmlns="http://www.w3.org/2000/svg">
   <desc>*JEJUAIR*
   </desc>

   <g id="barcode" fill="#000000">
      <rect x="0" y="0" width="116" height="59" fill="#FFFFFF" />
      <rect x="0.00" y="0.00" width="1.00" height="50.00" />
      <rect x="3.00" y="0.00" width="1.00" height="50.00" />
      <rect x="5.00" y="0.00" width="2.00" height="50.00" />
      <rect x="8.00" y="0.00" width="2.00" height="50.00" />
      <rect x="11.00" y="0.00" width="1.00" height="50.00" />
      <rect x="13.00" y="0.00" width="1.00" height="50.00" />
      <rect x="15.00" y="0.00" width="1.00" height="50.00" />
      <rect x="17.00" y="0.00" width="2.00" height="50.00" />
      <rect x="21.00" y="0.00" width="2.00" height="50.00" />
      <rect x="24.00" y="0.00" width="1.00" height="50.00" />
      <rect x="26.00" y="0.00" width="2.00" height="50.00" />
      <rect x="29.00" y="0.00" width="1.00" height="50.00" />
      <rect x="31.00" y="0.00" width="2.00" height="50.00" />
      <rect x="35.00" y="0.00" width="1.00" height="50.00" />
      <rect x="37.00" y="0.00" width="1.00" height="50.00" />
      <rect x="39.00" y="0.00" width="1.00" height="50.00" />
      <rect x="41.00" y="0.00" width="1.00" height="50.00" />
      <rect x="43.00" y="0.00" width="2.00" height="50.00" />
      <rect x="47.00" y="0.00" width="2.00" height="50.00" />
      <rect x="50.00" y="0.00" width="1.00" height="50.00" />
      <rect x="52.00" y="0.00" width="2.00" height="50.00" />
      <rect x="56.00" y="0.00" width="1.00" height="50.00" />
      <rect x="58.00" y="0.00" width="1.00" height="50.00" />
      <rect x="60.00" y="0.00" width="1.00" height="50.00" />
      <rect x="62.00" y="0.00" width="2.00" height="50.00" />
      <rect x="65.00" y="0.00" width="2.00" height="50.00" />
      <rect x="68.00" y="0.00" width="1.00" height="50.00" />
      <rect x="70.00" y="0.00" width="1.00" height="50.00" />
      <rect x="73.00" y="0.00" width="1.00" height="50.00" />
      <rect x="75.00" y="0.00" width="2.00" height="50.00" />
      <rect x="78.00" y="0.00" width="1.00" height="50.00" />
      <rect x="80.00" y="0.00" width="2.00" height="50.00" />
      <rect x="83.00" y="0.00" width="1.00" height="50.00" />
      <rect x="86.00" y="0.00" width="2.00" height="50.00" />
      <rect x="89.00" y="0.00" width="1.00" height="50.00" />
      <rect x="91.00" y="0.00" width="2.00" height="50.00" />
      <rect x="94.00" y="0.00" width="1.00" height="50.00" />
      <rect x="96.00" y="0.00" width="1.00" height="50.00" />
      <rect x="98.00" y="0.00" width="2.00" height="50.00" />
      <rect x="102.00" y="0.00" width="1.00" height="50.00" />
      <rect x="104.00" y="0.00" width="1.00" height="50.00" />
      <rect x="107.00" y="0.00" width="1.00" height="50.00" />
      <rect x="109.00" y="0.00" width="2.00" height="50.00" />
      <rect x="112.00" y="0.00" width="2.00" height="50.00" />
      <rect x="115.00" y="0.00" width="1.00" height="50.00" />
      <text x="58.00" y="59.00" text-anchor="middle"
         font-family="Helvetica" font-size="8.0" fill="#000000" >
         *JEJUAIR*
      </text>
   </g>
</svg>
